# AST/ASF file generated using VICON BodyLanguage
# -----------------------------------------------
:version 1.10
:name VICON
:units
  mass 1.0
  length 0.45
  angle deg
:documentation
   .ast/.asf automatically generated from VICON data using
   VICON BodyBuilder and BodyLanguage model FoxedUp or BRILLIANT.MOD
:root
   order TX TY TZ RX RY RZ
   axis XYZ
   position 0 0 0  
   orientation 0 0 0 
:bonedata
  begin
     id 1 
     name lhipjoint
     direction 0.78388 -0.462562 0.414208 
     length 3.01181 
     axis 0 0 0  XYZ
  end
  begin
     id 2 
     name lfemur
     direction 0.34202 -0.939693 0  
     length 6.04673  
     axis 0 0 20  XYZ
    dof rx ry rz
    limits (-160.0 20.0)
           (-70.0 70.0)
           (-60.0 70.0)
  end
  begin
     id 3 
     name ltibia
     direction 0.34202 -0.939693 0   
     length 7.211   
     axis 0 0 20   XYZ
    dof rx
    limits (-10.0 170.0)
  end
  begin
     id 4 
     name lfoot
     direction 0.121887 -0.334882 0.934344   
     length 2.13567   
     axis -90 7.62852e-016 20   XYZ
    dof rx rz
    limits (-45.0 90.0)
           (-70.0 20.0)
  end
  begin
     id 5 
     name ltoes
     direction 1.53555e-011 -4.2179e-011 1   
     length 1.05957   
     axis -90 7.62852e-016 20   XYZ
    dof rx
    limits (-90.0 20.0)
  end
  begin
     id 6 
     name rhipjoint
     direction -0.769387 -0.475875 0.426129   
     length 2.92756  
     axis 0 0 0  XYZ 
  end
  begin
     id 7 
     name rfemur
     direction -0.34202 -0.939693 0   
     length 6.35468   
     axis 0 0 -20   XYZ
    dof rx ry rz
    limits (-160.0 20.0)
           (-70.0 70.0)
           (-70.0 60.0)
  end
  begin
     id 8 
     name rtibia
     direction -0.34202 -0.939693 0   
     length 7.37886   
     axis 0 0 -20   XYZ
    dof rx
    limits (-10.0 170.0)
 end
 begin
     id 9 
     name rfoot
     direction -0.101763 -0.279592 0.954711   
     length 2.21478  
     axis -90 -7.62852e-016 -20   XYZ
    dof rx rz
    limits (-45.0 90.0)
           (-20.0 70.0)
  end
  begin
     id 10 
     name rtoes
     direction -1.53494e-011 -4.21851e-011 1   
     length 1.10506   
     axis -90 -7.62852e-016 -20   XYZ
    dof rx
    limits (-90.0 20.0)
  end
  begin
     id 11 
     name lowerback
     direction 0.00747405 0.999267 0.0375481   
     length 2.13259   
     axis 0 0 0   XYZ
    dof rx ry rz
    limits (-20.0 45.0)
           (-30.0 30.0)
           (-30.0 30.0)
  end
  begin
     id 12 
     name upperback
     direction 0.00661626 0.996177 0.0871029   
     length 2.10528   
     axis 0 0 0   XYZ
    dof rx ry rz
    limits (-20.0 45.0)
           (-30.0 30.0)
           (-30.0 30.0)
  end
  begin
     id 13 
     name thorax
     direction 0.00320659 0.997679 0.0680167   
     length 2.11338   
     axis 0 0 0   XYZ
    dof rx ry rz
    limits (-20.0 45.0)
           (-30.0 30.0)
           (-30.0 30.0)
  end
  begin
     id 14 
     name lowerneck
     direction 0.0374841 0.973033 0.227602   
     length 1.42765   
     axis 0 0 0   XYZ
    dof rx ry rz
    limits (-20.0 45.0)
           (-30.0 30.0)
           (-30.0 30.0)
  end
  begin
     id 15 
     name upperneck
     direction 0.00481585 0.989155 -0.146795   
     length 1.47593   
     axis 0 0 0   XYZ
    dof rx ry rz
    limits (-20.0 45.0)
           (-30.0 30.0)
           (-30.0 30.0)
  end
  begin
     id 16
     name head
     direction -0.00292522 0.997206 -0.0746423  
     length 1.48116  
     axis 0 0 0   XYZ
    dof rx ry rz
    limits (-20.0 45.0)
           (-30.0 30.0)
           (-30.0 30.0)
  end
  begin
     id 17 
     name lclavicle
     direction 0.951444 0.305606 0.0368784  
     length 3.01855  
     axis 0 0 0   XYZ
    dof ry rz
    limits (-20.0 10.0)
           (0.0 20.0)
  end
  begin
     id 18 
     name lhumerus
     direction 1 -4.48977e-011 2.61664e-027   
     length 5.52731   
     axis 180 -30 -90   XYZ
    dof rx ry rz
    limits (-60.0 90.0)
           (-90.0 90.0)
           (-90.0 90.0)
  end
  begin
     id 19
     name lradius
     direction 1 -4.48944e-011 8.22157e-027   
     length 3.11059   
     axis 180 -30 -90   XYZ
    dof rx
    limits (-10.0 170.0)
  end
  begin
     id 20
     name lwrist
     direction 1 -4.48976e-011 1.5779e-026   
     length 1.5553   
     axis -1.15221e-014 90 90   XYZ
    dof ry
    limits (-180.0 0.0)
 end
  begin
     id 21 
     name lhand
     direction 1 -4.49025e-011 3.1558e-026   
     length 0.419626   
     axis -2.01367e-014 90 90   XYZ
    dof rx rz
    limits (-90.0 90.0)
           (-45.0 45.0)
  end
  begin
     id 22 
     name lfingers
     direction 1 -4.4904e-011 6.31161e-026   
     length 0.338313   
     axis -4.02734e-014 90 90   XYZ
    dof rx
    limits (0.0 90.0)
  end
  begin
     id 23
     name lthumb
     direction 0.707107 -6.35004e-011 0.707107   
     length 0.485752   
     axis -90 45 2.85299e-015   XYZ
    dof rx rz
    limits (-45.0 45.0)
           (-45.0 45.0)
  end
  begin
     id 24 
     name rclavicle
     direction -0.968876 0.223791 0.105816   
     length 3.04177  
     axis 0 0 0   XYZ 
    dof ry rz
    limits (-10.0 20.0)
           (-20.0 0.0)
  end
  begin
     id 25 
     name rhumerus
     direction -1 -4.48962e-011 -1.01384e-027  
     length 5.25396   
     axis 180 30 90   XYZ
    dof rx ry rz
    limits (-90.0 60.0)
           (-90.0 90.0)
           (-90.0 90.0)
  end
  begin
     id 26 
     name rradius
     direction -1 -4.48955e-011 8.88542e-027   
     length 3.10567   
     axis 180 30 90   XYZ
    dof rx
    limits (-10.0 170.0)
  end
  begin
     id 27 
     name rwrist
     direction -1 -4.48994e-011 1.5779e-026   
     length 1.55283   
     axis -1.15221e-014 -90 -90   XYZ
    dof ry
    limits (-180.0 0.0)
  end
  begin
     id 28
     name rhand
     direction -1 -4.48891e-011 3.1558e-026   
     length 0.498676   
     axis -2.01367e-014 -90 -90   XYZ
    dof rx rz
    limits (-90.0 90.0)
           (-45.0 45.0)
  end
  begin
     id 29
     name rfingers
     direction -1 -4.48972e-011 6.31161e-026   
     length 0.402045   
     axis -4.02734e-014 -90 -90   XYZ
    dof rx
    limits (0.0 90.0)
  end
  begin
     id 30
     name rthumb
     direction -0.707107 -6.34849e-011 0.707107   
     length 0.577259   
     axis -90 -45 -2.85299e-015   XYZ
    dof rx rz
    limits (-45.0 45.0)
           (-45.0 45.0)
  end
:hierarchy
  begin
    root lhipjoint rhipjoint lowerback
    lhipjoint lfemur
    lfemur ltibia
    ltibia lfoot
    lfoot ltoes
    rhipjoint rfemur
    rfemur rtibia
    rtibia rfoot
    rfoot rtoes
    lowerback upperback
    upperback thorax
    thorax lowerneck lclavicle rclavicle
    lowerneck upperneck
    upperneck head
    lclavicle lhumerus
    lhumerus lradius
    lradius lwrist
    lwrist lhand lthumb
    lhand lfingers
    rclavicle rhumerus
    rhumerus rradius
    rradius rwrist
    rwrist rhand rthumb
    rhand rfingers
  end

#!OML:ASF H:\Pregnant\Project 1\Capture day 1\Session 1\femalepreg.ASF
:FULLY-SPECIFIED
:DEGREES
130
root 10.3746 15.6145 -0.434793 25.4283 -37.6773 -6.54285
lowerback -22.6708 -0.0311256 4.8546
upperback -6.85814 -1.65626 4.29375
thorax 5.12415 -0.895927 1.42542
lowerneck -19.3697 4.36193 5.36683
upperneck 29.623 5.48278 -3.57556
head 13.4967 2.44301 -1.39505
rclavicle -7.43455e-014 -7.95139e-015
rhumerus -18.1888 -42.1269 -57.4298
rradius 152.475
rwrist -36.5568
rhand -52.8939 -28.0063
rfingers 7.12502
rthumb -25.3641 -56.3394
lclavicle -7.43455e-014 -7.95139e-015
lhumerus -40.5114 -14.534 88.9683
lradius 26.2125
lwrist 46.821
lhand -27.379 10.9062
lfingers 7.12502
lthumb -0.786161 40.8845
rfemur -16.7492 19.2684 20.1253
rtibia 24.009
rfoot -21.7299 -18.5647
rtoes -12.1669
lfemur -36.2766 -21.9268 10.0488
ltibia 13.2671
lfoot 17.3799 28.5233
ltoes -48.7068
131
root 10.3699 15.6126 -0.44402 25.5186 -37.6429 -6.69322
lowerback -22.6623 0.000440326 4.91757
upperback -6.88012 -1.62986 4.31838
thorax 5.09473 -0.88403 1.42352
lowerneck -19.2909 4.45508 5.51376
upperneck 29.6867 5.61441 -3.69705
head 13.5246 2.50068 -1.44638
rclavicle 6.18717e-014 -1.98785e-014
rhumerus -18.1394 -42.297 -57.3195
rradius 152.498
rwrist -36.6548
rhand -52.8712 -28.0374
rfingers 7.12502
rthumb -25.3423 -56.3735
lclavicle 6.18717e-014 -1.98785e-014
lhumerus -40.6461 -14.2216 88.9441
lradius 26.2719
lwrist 46.79
lhand -27.1816 10.8588
lfingers 7.12502
lthumb -0.59545 40.8377
rfemur -16.7405 19.2086 20.2947
rtibia 23.9495
rfoot -21.6913 -18.4588
rtoes -12.1399
lfemur -36.3681 -21.9762 10.2813
ltibia 13.388
lfoot 17.4985 28.5881
ltoes -48.8403
132
root 10.3649 15.6107 -0.453522 25.6162 -37.6099 -6.84826
lowerback -22.6563 0.0277618 4.97674
upperback -6.90609 -1.60886 4.35074
thorax 5.06255 -0.874943 1.43073
lowerneck -19.2131 4.57033 5.67901
upperneck 29.7612 5.77774 -3.83297
head 13.561 2.57221 -1.50101
rclavicle -4.08999e-014 -4.69132e-014
rhumerus -18.0741 -42.4811 -57.2194
rradius 152.528
rwrist -36.734
rhand -52.8365 -28.0745
rfingers 7.12502
rthumb -25.3091 -56.4153
lclavicle -4.08999e-014 -4.69132e-014
lhumerus -40.787 -13.9524 88.9609
lradius 26.3286
lwrist 46.7633
lhand -26.9542 10.8919
lfingers 7.12502
lthumb -0.375852 40.8713
rfemur -16.7378 19.1432 20.468
rtibia 23.8911
rfoot -21.6519 -18.343
rtoes -12.1152
lfemur -36.4606 -22.0204 10.5189
ltibia 13.5086
lfoot 17.6262 28.651
ltoes -48.984
133
root 10.3597 15.6088 -0.463059 25.7164 -37.5756 -7.00242
lowerback -22.6547 0.0523191 5.03301
upperback -6.93418 -1.59127 4.38557
thorax 5.03041 -0.867605 1.44134
lowerneck -19.141 4.70589 5.86648
upperneck 29.8469 5.96819 -3.98166
head 13.6072 2.6562 -1.55965
rclavicle 7.30534e-015 2.06736e-014
rhumerus -17.999 -42.6819 -57.128
rradius 152.569
rwrist -36.7936
rhand -52.7982 -28.0882
rfingers 7.12502
rthumb -25.2725 -56.4342
lclavicle 7.30534e-015 2.06736e-014
lhumerus -40.922 -13.7257 89.0059
lradius 26.3793
lwrist 46.7548
lhand -26.7411 10.9308
lfingers 7.12502
lthumb -0.169996 40.9105
rfemur -16.7394 19.0773 20.6407
rtibia 23.8345
rfoot -21.6081 -18.2294
rtoes -12.1043
lfemur -36.5542 -22.0635 10.7578
ltibia 13.6234
lfoot 17.7713 28.7062
ltoes -49.1386
134
root 10.3544 15.607 -0.472569 25.8158 -37.5391 -7.1509
lowerback -22.6575 0.0767734 5.08502
upperback -6.96501 -1.57308 4.41977
thorax 4.99768 -0.86005 1.45382
lowerneck -19.0709 4.85597 6.06873
upperneck 29.9419 6.17825 -4.1374
head 13.6611 2.74939 -1.62015
rclavicle 4.07012e-014 3.4191e-014
rhumerus -17.9256 -42.899 -57.033
rradius 152.62
rwrist -36.8272
rhand -52.7632 -28.0886
rfingers 7.12502
rthumb -25.2389 -56.4393
lclavicle 4.07012e-014 3.4191e-014
lhumerus -41.0461 -13.532 89.0719
lradius 26.4172
lwrist 46.7296
lhand -26.5163 10.9913
lfingers 7.12502
lthumb 0.0470786 40.971
rfemur -16.7441 19.0094 20.8095
rtibia 23.7801
rfoot -21.5673 -18.1151
rtoes -12.0844
lfemur -36.6426 -22.0869 10.9816
ltibia 13.7264
lfoot 17.9267 28.7312
ltoes -49.3053
135
root 10.349 15.6054 -0.482078 25.9108 -37.497 -7.28865
lowerback -22.6639 0.0993438 5.12982
upperback -6.99975 -1.55572 4.45252
thorax 4.96266 -0.853013 1.46859
lowerneck -19.0016 5.01822 6.28138
upperneck 30.0486 6.40387 -4.29322
head 13.7229 2.85046 -1.67975
rclavicle 7.97623e-014 -1.59028e-014
rhumerus -17.8548 -43.117 -56.9435
rradius 152.682
rwrist -36.825
rhand -52.7324 -28.0698
rfingers 7.12502
rthumb -25.2094 -56.4247
lclavicle 7.97623e-014 -1.59028e-014
lhumerus -41.16 -13.3678 89.1562
lradius 26.445
lwrist 46.7004
lhand -26.3313 11.0224
lfingers 7.12502
lthumb 0.22581 41.002
rfemur -16.7514 18.9426 20.9711
rtibia 23.7283
rfoot -21.527 -18.0106
rtoes -12.0663
lfemur -36.7192 -22.0591 11.1674
ltibia 13.8122
lfoot 18.0732 28.6875
ltoes -49.4778
136
root 10.3435 15.604 -0.491645 26.0016 -37.4496 -7.41471
lowerback -22.6745 0.121709 5.16717
upperback -7.03849 -1.53681 4.4814
thorax 4.92554 -0.845323 1.48377
lowerneck -18.9254 5.18927 6.5011
upperneck 30.1601 6.64009 -4.44467
head 13.7875 2.95765 -1.73703
rclavicle 3.84151e-014 1.66979e-014
rhumerus -17.7882 -43.339 -56.8554
rradius 152.752
rwrist -36.7908
rhand -52.7104 -28.0294
rfingers 7.12502
rthumb -25.1883 -56.3872
lclavicle 3.84151e-014 1.66979e-014
lhumerus -41.2663 -13.241 89.2604
lradius 26.4656
lwrist 46.6671
lhand -26.1723 11.0413
lfingers 7.12502
lthumb 0.379332 41.0207
rfemur -16.7619 18.8721 21.1249
rtibia 23.6794
rfoot -21.4903 -17.9094
rtoes -12.0434
lfemur -36.7819 -21.9745 11.3114
ltibia 13.8776
lfoot 18.2061 28.5689
ltoes -49.6532
137
root 10.3378 15.6029 -0.501325 26.0863 -37.396 -7.5269
lowerback -22.6873 0.143374 5.19661
upperback -7.08101 -1.51659 4.50488
thorax 4.88553 -0.837089 1.49792
lowerneck -18.8382 5.36592 6.72056
upperneck 30.2699 6.8827 -4.58549
head 13.8503 3.06929 -1.78902
rclavicle -2.79789e-014 -4.53229e-014
rhumerus -17.7229 -43.5573 -56.7809
rradius 152.828
rwrist -36.7171
rhand -52.7009 -27.947
rfingers 7.12502
rthumb -25.1792 -56.3062
lclavicle -2.79789e-014 -4.53229e-014
lhumerus -41.3637 -13.1408 89.3759
lradius 26.4802
lwrist 46.6146
lhand -26.0511 11.0279
lfingers 7.12502
lthumb 0.496413 41.0071
rfemur -16.775 18.7914 21.2701
rtibia 23.6332
rfoot -21.4614 -17.8066
rtoes -12.0118
lfemur -36.829 -21.8271 11.4078
ltibia 13.921
lfoot 18.3164 28.3698
ltoes -49.8256
138
root 10.332 15.6021 -0.511096 26.1677 -37.3373 -7.62794
lowerback -22.6985 0.161182 5.21514
upperback -7.13164 -1.49856 4.5298
thorax 4.83614 -0.830218 1.51925
lowerneck -18.7364 5.54919 6.93937
upperneck 30.3783 7.13593 -4.72232
head 13.9114 3.1863 -1.83758
rclavicle -1.38603e-013 6.36111e-015
rhumerus -17.6629 -43.7636 -56.7108
rradius 152.91
rwrist -36.6148
rhand -52.6984 -27.841
rfingers 7.12502
rthumb -25.1769 -56.2005
lclavicle -1.38603e-013 6.36111e-015
lhumerus -41.4707 -13.0699 89.5205
lradius 26.4966
lwrist 46.5528
lhand -25.9306 11.0398
lfingers 7.12502
lthumb 0.612781 41.0186
rfemur -16.791 18.7017 21.4084
rtibia 23.5887
rfoot -21.4348 -17.7041
rtoes -11.9861
lfemur -36.8646 -21.6359 11.4706
ltibia 13.9431
lfoot 18.4144 28.1095
ltoes -49.996
139
root 10.3262 15.6015 -0.521042 26.2451 -37.271 -7.71596
lowerback -22.7162 0.174053 5.22769
upperback -7.1829 -1.48587 4.55169
thorax 4.78942 -0.825901 1.53926
lowerneck -18.6156 5.73778 7.15507
upperneck 30.4716 7.39753 -4.85229
head 13.9634 3.30804 -1.8815
rclavicle -1.36714e-013 1.27222e-014
rhumerus -17.6113 -43.9817 -56.6415
rradius 153.003
rwrist -36.511
rhand -52.7044 -27.7158
rfingers 7.12502
rthumb -25.1826 -56.0745
lclavicle -1.36714e-013 1.27222e-014
lhumerus -41.5684 -13.0128 89.6717
lradius 26.5111
lwrist 46.4702
lhand -25.825 11.0432
lfingers 7.12502
lthumb 0.714729 41.0217
rfemur -16.8101 18.6081 21.5385
rtibia 23.5438
rfoot -21.41 -17.6076
rtoes -11.9637
lfemur -36.8902 -21.379 11.4867
ltibia 13.9478
lfoot 18.4812 27.7661
ltoes -50.1631
